<svg xmlns="http://www.w3.org/2000/svg" version="1.1" xmlns:xlink="http://www.w3.org/1999/xlink" xmlns:svgjs="http://svgjs.dev/svgjs" width="1500" height="1500" viewBox="0 0 1500 1500"><rect width="1500" height="1500" fill="#ffffff"></rect><g transform="matrix(0.6666666666666666,0,0,0.6666666666666666,249.85778443113782,249.85778443113765)"><svg viewBox="0 0 334 334" data-background-color="#ffffff" preserveAspectRatio="xMidYMid meet" height="1500" width="1500" xmlns="http://www.w3.org/2000/svg" xmlns:xlink="http://www.w3.org/1999/xlink"><g id="tight-bounds" transform="matrix(1,0,0,1,0.04749999999998522,0.04750000000001364)"><svg viewBox="0 0 333.90454557049503 333.90454557049503" height="333.90454557049503" width="333.90454557049503"><g><svg></svg></g><g><svg viewBox="0 0 333.90454557049503 333.90454557049503" height="333.90454557049503" width="333.90454557049503"><g><path d="M0 166.952c0-92.205 74.747-166.952 166.952-166.952 92.205 0 166.952 74.747 166.953 166.952 0 92.205-74.747 166.952-166.953 166.953-92.205 0-166.952-74.747-166.952-166.953zM166.952 323.256c86.324 0 156.304-69.98 156.304-156.304 0-86.324-69.98-156.304-156.304-156.304-86.324 0-156.304 69.98-156.304 156.304 0 86.324 69.98 156.304 156.304 156.304z" data-fill-palette-color="tertiary" fill="#000000" stroke="transparent"></path><ellipse rx="160.27418187383762" ry="160.27418187383762" cx="166.95227278524752" cy="166.95227278524752" fill="#000000" stroke="transparent" stroke-width="0" fill-opacity="1" data-fill-palette-color="tertiary"></ellipse></g><g transform="matrix(1,0,0,1,130.05336808013647,71.17305217166896)"><svg viewBox="0 0 73.79780941022207 191.55844122715712" height="191.55844122715712" width="73.79780941022207"><g><svg viewBox="0 0 73.79780941022207 191.55844122715712" height="191.55844122715712" width="73.79780941022207"><g><svg viewBox="0 0 119.7240257669732 310.77003418728395" height="191.55844122715712" width="73.79780941022207"><g transform="matrix(1,0,0,1,0,119.21159296012681)"><svg viewBox="0 0 119.7240257669732 191.55844122715712" height="191.55844122715712" width="119.7240257669732"><g id="textblocktransform"><svg viewBox="0 0 119.7240257669732 191.55844122715712" height="191.55844122715712" width="119.7240257669732" id="textblock"><g><svg viewBox="0 0 119.7240257669732 191.55844122715712" height="191.55844122715712" width="119.7240257669732"><g transform="matrix(1,0,0,1,0,0)"><svg width="119.7240257669732" viewBox="2.65 -35.5 22.5 36" height="191.55844122715712" data-palette-color="#ffffff"><path d="M3.9-26.35L3.9-26.35Q3.9-31.2 6.35-33.35 8.8-35.5 14.3-35.5L14.3-35.5Q18.15-35.5 20.5-33.5 22.85-31.5 23.9-27.4L23.9-27.4 19.25-23.9 16.8-23.9 22.2-27.95Q21.15-31.3 19.18-32.65 17.2-34 14.3-34L14.3-34Q12.3-34 10.93-33.75 9.55-33.5 8.18-32.77 6.8-32.05 6.1-30.45 5.4-28.85 5.4-26.35L5.4-26.35Q5.4-24.15 7.43-22.45 9.45-20.75 12.35-19.55 15.25-18.35 18.18-17.1 21.1-15.85 23.13-13.9 25.15-11.95 25.15-9.4L25.15-9.4Q25.15-4.4 22.68-1.95 20.2 0.5 14.2 0.5L14.2 0.5Q9.3 0.5 6.5-1.48 3.7-3.45 2.65-7.6L2.65-7.6 4.05-8.2Q5.05-4.15 7.48-2.58 9.9-1 14.2-1L14.2-1Q19-1 21.33-2.85 23.65-4.7 23.65-9.4L23.65-9.4Q23.65-11.6 21.63-13.3 19.6-15 16.68-16.2 13.75-17.4 10.85-18.65 7.95-19.9 5.93-21.85 3.9-23.8 3.9-26.35Z" opacity="1" transform="matrix(1,0,0,1,0,0)" fill="#ffffff" class="wordmark-text-0" data-fill-palette-color="quaternary" id="text-0"></path></svg></g></svg></g></svg></g></svg></g><g transform="matrix(1,0,0,1,22.867288921491884,0)"><svg viewBox="0 0 73.98944792398943 73.98924238898447" height="73.98924238898447" width="73.98944792398943"><g><svg xmlns="http://www.w3.org/2000/svg" xmlns:xlink="http://www.w3.org/1999/xlink" version="1.1" x="0" y="0" viewBox="4.537124995366479 5.0009999999999994 89.99950000926752 89.99924999999998" enable-background="new 0 0 100 100" xml:space="preserve" height="73.98924238898447" width="73.98944792398943" class="icon-icon-0" data-fill-palette-color="quaternary" id="icon-0"><path d="M86.229 50.001l0.721-0.723c10.115-10.115 10.116-26.574 0-36.69s-26.575-10.116-36.691 0l-0.722 0.721-0.721-0.721C38.7 2.472 22.24 2.472 12.124 12.588 2.008 22.704 2.008 39.163 12.125 49.278l0.721 0.723-0.721 0.721C2.008 60.838 2.008 77.296 12.124 87.414c10.117 10.115 26.577 10.115 36.692 0l0.721-0.722 0.722 0.722c10.116 10.115 26.575 10.115 36.691 0 10.116-10.118 10.115-26.576 0-36.692L86.229 50.001zM53.453 15.783c8.354-8.354 21.947-8.354 30.3 0 8.354 8.354 8.354 21.948 0.001 30.301L59.431 70.407c-1.862 1.863-2.316 4.073-0.109 6.306l0.831 0.806c4.66 4.66 12.242 4.66 16.902 0s4.66-12.243 0.001-16.903l-0.722-0.722 1.751-1.75 0.722 0.722c5.627 5.625 5.627 14.78 0 20.405-5.625 5.625-14.781 5.625-20.406 0 0 0-0.354-0.298-0.833-0.78-0.44-0.447-4.823-4.899 0.112-9.835l24.322-24.323c7.389-7.388 7.389-19.409 0-26.798-7.388-7.387-19.408-7.387-26.796 0.001l-0.723 0.721-1.752-1.751L53.453 15.783zM73.86 74.325c-2.899 2.897-7.615 2.897-10.514 0l-0.721-0.722 10.513-10.513 0.722 0.72C76.758 66.71 76.758 71.425 73.86 74.325zM15.319 15.783c8.354-8.354 21.948-8.354 30.302 0l24.321 24.321-1.752 1.754L43.868 17.535c-7.389-7.388-19.408-7.388-26.796 0-7.389 7.388-7.389 19.409 0 26.797l0.721 0.722-1.752 1.752-0.722-0.721C6.965 37.731 6.965 24.138 15.319 15.783zM62.626 26.398l0.721-0.722c2.898-2.898 7.614-2.898 10.514 0 2.897 2.898 2.897 7.613 0 10.514l-0.722 0.721L62.626 26.398zM24.337 58.297l-2.319 2.318c-4.661 4.66-4.66 12.243 0 16.903 4.659 4.66 12.242 4.66 16.902 0l0.722-0.722c3.561-3.559-0.725-7.104-2.787-9.167l-1.343-1.354-6.383-6.383 1.752-1.75 8.49 8.489 0.67 0.672c6.242 6.239 1.837 10.76 1.353 11.244l-0.722 0.722c-5.626 5.628-14.78 5.625-20.407 0-5.625-5.625-5.625-14.78 0.001-20.407L44.59 34.54l1.751 1.754L34.23 48.403 24.337 58.297zM25.934 63.091l10.513 10.51-0.722 0.723c-2.899 2.897-7.614 2.899-10.512 0-2.898-2.898-2.898-7.615 0-10.513L25.934 63.091zM49.536 39.488l10.512 10.513L49.536 60.512 39.023 50.001 49.536 39.488zM38.921 22.483c-4.66-4.662-12.243-4.66-16.902 0-4.66 4.658-4.661 12.242 0 16.902l0.721 0.722-1.752 1.751-0.722-0.721c-5.626-5.627-5.625-14.781 0-20.408 5.627-5.625 14.781-5.626 20.407 0l24.323 24.323-1.752 1.752L38.921 22.483zM36.447 26.399L25.934 36.911l-0.721-0.721c-2.899-2.899-2.899-7.615-0.001-10.514 2.898-2.898 7.614-2.898 10.513 0.002L36.447 26.399zM83.753 84.218c-8.353 8.354-21.946 8.354-30.3 0l-0.909-0.813c-0.198-0.199-1.873-1.863-3.107-4.434-1.151 2.43-2.679 4.096-3.094 4.525l-0.722 0.722c-8.354 8.354-21.948 8.354-30.302 0-8.354-8.354-8.354-21.947 0-30.303l24.323-24.321 1.752 1.753L17.072 55.669c-7.389 7.389-7.389 19.409 0 26.797 7.388 7.389 19.408 7.389 26.796 0l0.761-0.762c1.918-1.991 3.366-5.064 3.473-8.229 0-0.093 0.007-0.186 0.009-0.277 0.022-2.474-0.788-4.981-2.86-7.055-1.284-1.284-3.86-3.86-3.86-3.86l-0.371-0.395-6.942-6.941 1.752-1.753 9.693 9.693 0.813 0.828c1.438 1.439 2.459 2.871 3.161 4.269 0.705-1.348 1.705-2.73 3.102-4.128l0.134-0.148 24.324-24.322c4.659-4.66 4.659-12.244-0.001-16.904-4.659-4.66-12.242-4.66-16.902 0l-0.722 0.723-1.751-1.752 0.721-0.723c5.625-5.625 14.781-5.625 20.406 0 5.627 5.627 5.627 14.781 0 20.406L54.482 65.46l-0.767 0.77c-4.868 4.868-2.956 11.839 0.604 15.397l0.886 0.839c7.388 7.389 19.408 7.389 26.796 0 7.389-7.388 7.389-19.408 0-26.797l-0.722-0.722 1.752-1.753 0.722 0.723C92.107 62.271 92.107 75.863 83.753 84.218z" fill="#ffffff" data-fill-palette-color="quaternary"></path></svg></g></svg></g><g></g></svg></g></svg></g></svg></g></svg></g><defs></defs></svg><rect width="333.90454557049503" height="333.90454557049503" fill="none" stroke="none" visibility="hidden"></rect></g></svg></g></svg>